<svg width="239" height="86" viewBox="0 0 239 86" fill="none" xmlns="http://www.w3.org/2000/svg">
    <path d="M103.511 12.7091C103.511 8.73754 112.816 5.90068 110.002 3.29076C108.389 1.6185 106.309 0.471642 104.033 0C101.287 0 98.337 4.53898 98.337 8.85102C98.337 12.5957 103.511 14.4567 103.511 12.7091ZM59.9599 1.58864C32.5672 1.58864 23.1942 10.8255 23.1942 18.7233C23.1942 22.8992 25.2367 25.5318 29.0949 25.5318C32.2948 25.5318 33.9516 23.6708 33.9516 22.241C33.9516 20.8112 31.6821 22.5133 31.6821 19.4949C31.6821 15.1375 36.2211 7.62549 53.2876 6.21841C46.4792 14.434 30.4339 43.2792 30.4339 51.3132C30.389 51.6065 30.389 51.9049 30.4339 52.1983C20.5389 51.4947 25.441 47.6593 23.0807 47.6593C21.9687 47.6593 20.2665 49.1345 20.2665 52.0167C20.2665 54.899 20.8566 59.6422 34.814 59.6422C56.0564 59.6422 81.7924 42.6437 81.7924 21.2197C81.9059 15.9772 81.0435 1.58864 59.9599 1.58864ZM36.6977 52.221C39.3076 39.3984 59.0294 12.4595 62.3202 9.10066C62.8876 8.57867 61.9798 7.17159 60.4819 5.94607C68.7882 6.26379 76.7315 9.10066 76.7315 18.5871C76.7315 30.0934 61.1174 50.7458 36.6977 52.221ZM178.178 43.4834H177.565C182.399 33.8381 185.077 26.4623 186.643 24.9417C188.595 23.0126 180.674 19.3588 180.674 19.3588C180.674 19.3588 167.602 37.9005 164.13 37.9005C161.043 37.9005 170.28 16.3403 179.335 16.3403C180.765 16.3403 180.515 19.3588 181.605 18.2694C182.694 17.18 180.81 9.19144 175.954 9.19144C168.873 9.19144 158.728 21.8325 157.23 32.0906C153.236 36.6296 148.788 41.4182 147.222 41.4182C144.271 41.4182 152.782 27.4381 152.782 25.8268C152.782 23.1488 147.086 21.5375 147.086 21.5375C147.086 21.5375 134.127 40.0111 130.655 40.0111C127.182 40.0111 136.805 18.3829 145.837 18.3829C147.29 18.3829 146.949 21.4694 148.107 20.38C149.264 19.2907 147.313 11.3021 142.456 11.3021C136.51 11.3021 128.521 20.0169 125.14 28.9133C121.985 30.57 117.923 32.9303 113.565 35.5856C112.563 32.6547 111.968 29.6003 111.795 26.5076C111.795 21.3786 120.124 19.1318 121.168 19.1318C122.212 19.1318 122.212 22.8538 122.212 22.8538C122.212 22.8538 124.708 22.3318 124.708 18.1105C124.708 16.0453 121.032 13.095 117.9 13.095C114.768 13.095 106.167 16.885 106.303 24.4424C106.303 25.1233 106.303 25.8041 106.439 26.4623C101.31 31.8636 89.4406 45.526 86.4676 45.4125C83.4945 45.299 99.4945 20.6524 99.4945 19.8807C99.4945 18.2921 96.0902 14.434 93.9342 15.6595C91.7782 16.885 70.0365 49.2479 84.425 49.2706C90.9385 49.2706 102.15 36.0395 106.848 28.8452C107.483 32.136 108.618 35.4948 109.389 38.1274C102.241 42.8026 96.1356 47.682 96.1356 50.3827C96.1356 51.6536 98.4051 55.7614 104.669 55.7614C112.136 55.7614 116.016 50.6323 116.016 46.9785C115.872 44.187 115.368 41.4258 114.518 38.7629C117.9 36.4934 121.327 34.2239 124.005 32.3175C123.672 33.7235 123.497 35.1622 123.483 36.6069C123.483 43.5969 128.022 45.1175 129.906 45.1175C132.924 45.1175 140.64 34.1558 140.64 34.1558C140.64 34.1558 137.69 45.1175 144.635 45.1175C148.311 45.1175 153.145 40.9416 157.139 36.2892C157.163 37.9883 157.821 39.6174 158.984 40.8562C160.147 42.095 161.732 42.854 163.426 42.9841C166.444 42.9841 174.161 31.9998 174.161 31.9998C172.808 36.3241 171.209 40.5674 169.372 44.709C159.296 46.8423 145.86 55.1259 150.399 64.7259C150.912 65.7359 151.699 66.5807 152.671 67.1628C153.643 67.745 154.759 68.041 155.891 68.0166C163.086 68.0166 169.667 58.2805 174.955 48.5898C178.709 47.929 182.549 47.929 186.302 48.5898C189.321 49.1572 193.701 49.9061 193.792 53.4465C193.842 54.619 193.52 55.7774 192.872 56.7558C192.224 57.7342 191.283 58.4824 190.183 58.8933C189.843 59.0067 190.841 60.7089 193.633 59.6422C197.582 58.1217 198.694 54.672 195.902 50.9727C192.68 46.6607 186.824 44.0508 178.178 43.4834ZM100.062 50.4962C99.154 49.6111 104.056 45.9572 110.275 41.6451C110.473 42.3864 110.587 43.1477 110.615 43.9146C110.547 48.4536 102.649 53.0607 100.016 50.4962H100.062ZM155.233 65.1344C154.921 65.1351 154.613 65.0716 154.326 64.9478C154.04 64.8239 153.782 64.6424 153.569 64.4145C153.357 64.1866 153.193 63.9173 153.089 63.6234C152.984 63.3294 152.942 63.0171 152.964 62.706C152.964 62.5925 152.964 62.4791 152.964 62.3429C154.174 59.1653 156.288 56.4118 159.046 54.4224C161.446 52.8533 164.04 51.6022 166.762 50.7004C163.29 57.7812 158.728 65.1344 155.233 65.1344ZM200.305 28.2098C206.864 28.2098 214.716 20.1985 214.716 15.3191C214.716 12.7545 211.176 7.17159 206.342 7.17159C198.603 7.17159 187.392 21.9914 187.392 32.5672C187.269 33.9438 187.481 35.3297 188.011 36.6063C188.541 37.883 189.372 39.0123 190.433 39.8976C191.416 40.6446 192.604 41.0723 193.837 41.1232C202.915 41.1232 210.699 31.1601 209.134 29.5715C208.475 28.9133 204.731 37.4012 195.948 37.4012C195.602 37.4026 195.26 37.325 194.949 37.1743C192.793 36.0622 194.041 30.9105 196.878 25.8268C197.128 26.5367 197.591 27.1517 198.205 27.5867C198.819 28.0217 199.553 28.2553 200.305 28.2552V28.2098ZM209.746 14.2978C212.288 14.2978 202.416 23.1488 198.399 23.1488C201.622 18.451 205.956 14.3432 209.746 14.3432V14.2978Z" fill="white"/>
    <path d="M144.952 65.3386H0V66.4507H144.952V65.3386Z" fill="white"/>
    <path d="M239 65.3386H169.486V66.4507H239V65.3386Z" fill="white"/>
    <path d="M0.226959 73.0322H3.63119L5.8326 76.323L8.0567 73.0322H11.4609V82.5868H8.12479V77.8662L5.78721 81.1116L3.51772 77.9343V82.5868H0.226959V73.0322Z" fill="white"/>
    <path d="M13.0269 84.6518L14.0709 82.3823C14.506 82.6705 15.0043 82.8496 15.5233 82.9043C15.6751 82.9183 15.8279 82.8897 15.9642 82.8215C16.1006 82.7533 16.2151 82.6483 16.295 82.5184L12.5049 73.032H15.9999L17.9744 78.7511L19.79 72.9866H23.2169L19.7219 82.3142C18.9049 84.5837 17.9971 85.4234 16.0907 85.4234C15.0153 85.4256 13.9584 85.1438 13.0269 84.6064" fill="white"/>
    <path d="M23.058 82.5867L23.2169 79.9768H23.7616C24.3516 79.9768 25.0098 79.7272 25.0098 74.8024V72.9641H33.2481V82.6094H29.8892V75.801H28.119V76.0506C28.119 81.8151 26.5757 82.8591 24.5559 82.8591C24.0542 82.8455 23.5539 82.8 23.058 82.7229" fill="white"/>
    <path d="M35.041 73.0322H38.3998V76.0507H40.0111C42.2806 76.0507 43.9601 77.14 43.9601 79.296C43.9601 81.452 42.4622 82.6095 40.17 82.6095H35.041V73.0322ZM39.4438 80.2265C40.2608 80.2265 40.7374 79.8861 40.7374 79.1825C40.7374 78.479 40.2608 78.2067 39.4438 78.2067H38.3998V80.2265H39.4438Z" fill="white"/>
    <path d="M46.3884 75.7329H43.5969V73.0322H52.5387V75.7329H49.7472V82.5868H46.3884V75.7329Z" fill="white"/>
    <path d="M53.6053 73.0322H56.8507V77.8209L60.028 73.0322H63.1145V82.5868H59.8691V77.7982L56.6918 82.5868H53.6053V73.0322Z" fill="white"/>
    <path d="M64.9301 73.0322H68.3343L70.5357 76.323L72.7598 73.0322H76.1641V82.5868H72.8052V77.8662L70.4676 81.1116L68.2208 77.9343V82.5868H64.9301V73.0322Z" fill="white"/>
    <path d="M77.5712 77.8212C77.5435 77.1735 77.6477 76.5269 77.8774 75.9206C78.107 75.3143 78.4574 74.761 78.9073 74.2941C79.3571 73.8273 79.8971 73.4566 80.4945 73.2047C81.0919 72.9527 81.7342 72.8247 82.3825 72.8284C83.0573 72.8046 83.7292 72.9265 84.3526 73.1858C84.976 73.4452 85.5362 73.8359 85.9949 74.3312C86.4537 74.8266 86.8003 75.4151 87.0111 76.0565C87.2219 76.6979 87.292 77.3772 87.2165 78.0482C87.2165 78.2751 87.2165 78.5248 87.2165 78.7517H80.8166C80.914 79.2179 81.1768 79.6332 81.5563 79.921C81.9358 80.2088 82.4066 80.3497 82.8818 80.3177C83.2857 80.3123 83.684 80.2227 84.0514 80.0547C84.4187 79.8866 84.7469 79.6438 85.0151 79.3418L86.8534 80.885C86.3712 81.517 85.7444 82.024 85.0257 82.3636C84.307 82.7032 83.5173 82.8655 82.7229 82.8368C82.0482 82.8786 81.3722 82.7784 80.7385 82.5426C80.1049 82.3069 79.5278 81.9409 79.0444 81.4682C78.5611 80.9956 78.1822 80.4268 77.9324 79.7986C77.6825 79.1704 77.5672 78.4968 77.5939 77.8212H77.5712ZM84.0846 77.0269C84.0908 76.5793 83.9203 76.1473 83.6102 75.8245C83.3002 75.5017 82.8754 75.314 82.4279 75.3021C81.5428 75.3021 80.9527 75.983 80.7712 77.0269H84.0846Z" fill="white"/>
    <path d="M87.92 79.8861H88.8051C89.4762 77.8304 89.7609 75.6682 89.6448 73.5088V73.0322H98.1554V79.8407H99.2675L98.9497 84.3797H96.0902V82.6095H91.0973L90.9157 84.5385H87.92V79.8861ZM94.7285 79.8861V75.7102H92.7994V75.8691C92.775 77.2294 92.5689 78.5804 92.1866 79.8861H94.7285Z" fill="white"/>
    <path d="M100.153 73.0322H103.398V77.8209L106.575 73.0322H109.662V82.5868H106.416V77.7982L103.239 82.5868H100.153V73.0322Z" fill="white"/>
    <path d="M111.001 79.8183C111.001 77.8439 112.499 76.8226 114.745 76.8226C115.516 76.8293 116.281 76.9517 117.015 77.1857V77.0269C117.015 76.051 116.402 75.4836 115.109 75.4836C114.205 75.4768 113.309 75.6545 112.476 76.0056L111.795 73.7361C113.013 73.2153 114.329 72.96 115.653 72.9872C116.305 72.9292 116.962 73.0016 117.585 73.2004C118.209 73.3991 118.786 73.7201 119.284 74.1446C119.654 74.5541 119.936 75.0355 120.112 75.5588C120.288 76.082 120.354 76.6358 120.306 77.1857V82.6098H116.992V81.6112C116.641 82.0069 116.206 82.32 115.72 82.5279C115.233 82.7359 114.707 82.8336 114.178 82.814C113.765 82.8565 113.347 82.8098 112.953 82.6772C112.56 82.5445 112.199 82.3289 111.896 82.045C111.592 81.7611 111.354 81.4154 111.195 81.0312C111.037 80.6471 110.963 80.2335 110.978 79.8183H111.001ZM117.038 79.1375V78.7517C116.625 78.5944 116.186 78.5174 115.744 78.5247C114.768 78.5247 114.201 79.0013 114.201 79.7275C114.199 79.8769 114.23 80.0248 114.291 80.1612C114.352 80.2976 114.441 80.4194 114.553 80.5184C114.665 80.6173 114.797 80.6911 114.939 80.7348C115.082 80.7785 115.233 80.791 115.381 80.7715C115.603 80.7956 115.829 80.7703 116.04 80.6974C116.252 80.6245 116.445 80.5057 116.605 80.3496C116.765 80.1935 116.889 80.004 116.968 79.7944C117.047 79.5849 117.078 79.3606 117.06 79.1375H117.038Z" fill="white"/>
    <path d="M126.933 73.0325H132.584C133.54 72.9633 134.486 73.273 135.216 73.8949C135.42 74.1 135.58 74.3448 135.685 74.6142C135.791 74.8836 135.84 75.1718 135.829 75.4608C135.83 75.9245 135.69 76.3776 135.426 76.759C135.162 77.1404 134.788 77.4319 134.354 77.5942C134.874 77.7003 135.341 77.9855 135.673 78.4002C136.004 78.8148 136.18 79.3327 136.169 79.8637C136.169 81.5204 134.808 82.519 132.538 82.519H126.933V73.0325ZM131.335 76.8452C132.107 76.8452 132.516 76.5048 132.516 75.9828C132.516 75.4608 132.107 75.1885 131.381 75.1885H130.201V76.8452H131.335ZM131.562 80.431C132.357 80.431 132.811 80.0679 132.811 79.5232C132.811 78.9786 132.402 78.6381 131.54 78.6381H130.201V80.431H131.562Z" fill="white"/>
    <path d="M142.569 73.0322H145.815V77.8209L148.992 73.0322H152.079V82.5868H148.833V77.7982L145.656 82.5868H142.569V73.0322Z" fill="white"/>
    <path d="M153.871 73.0322H157.23V76.4138H159.976V73.0322H163.335V82.5868H159.976V79.1372H157.23V82.5868H153.871V73.0322Z" fill="white"/>
    <path d="M167.193 75.7329H164.425V73.0322H173.344V75.7329H170.552V82.5868H167.193V75.7329Z" fill="white"/>
    <path d="M173.639 77.821C173.611 77.1732 173.715 76.5266 173.945 75.9203C174.175 75.314 174.525 74.7607 174.975 74.2939C175.425 73.827 175.965 73.4564 176.562 73.2044C177.159 72.9525 177.802 72.8244 178.45 72.8281C179.123 72.8076 179.792 72.932 180.413 73.1928C181.034 73.4537 181.591 73.8448 182.047 74.3398C182.503 74.8348 182.848 75.4221 183.057 76.0619C183.267 76.7016 183.336 77.3789 183.261 78.0479C183.261 78.2749 183.261 78.5245 183.261 78.7515H176.884C176.982 79.2177 177.244 79.633 177.624 79.9207C178.003 80.2085 178.474 80.3494 178.949 80.3174C179.35 80.3145 179.746 80.226 180.11 80.0577C180.474 79.8894 180.798 79.6452 181.06 79.3415L182.921 80.8848C182.431 81.5143 181.8 82.0193 181.078 82.3584C180.357 82.6976 179.565 82.8614 178.768 82.8365C178.092 82.8819 177.415 82.7842 176.779 82.5498C176.144 82.3153 175.565 81.9494 175.081 81.476C174.597 81.0026 174.218 80.4323 173.97 79.8025C173.721 79.1727 173.608 78.4974 173.639 77.821ZM180.129 77.0267C179.993 75.9827 179.381 75.3018 178.473 75.3018C177.565 75.3018 176.975 75.9827 176.816 77.0267H180.129Z" fill="white"/>
    <path d="M184.737 73.0321H188.095V74.2123C188.423 73.7535 188.855 73.3801 189.357 73.1234C189.858 72.8667 190.414 72.7342 190.978 72.7371C192.16 72.9331 193.235 73.5425 194.01 74.4569C194.786 75.3713 195.211 76.5312 195.211 77.73C195.211 78.9288 194.786 80.0887 194.01 81.0031C193.235 81.9174 192.16 82.5269 190.978 82.7229C190.419 82.7344 189.865 82.6152 189.361 82.3748C188.857 82.1345 188.416 81.7796 188.073 81.3385V85.3328H184.714L184.737 73.0321ZM191.931 77.7981C191.874 77.4254 191.713 77.0765 191.464 76.7929C191.216 76.5092 190.892 76.3025 190.53 76.1973C190.168 76.092 189.783 76.0926 189.422 76.1989C189.06 76.3052 188.736 76.5129 188.489 76.7973C188.241 77.0817 188.081 77.4309 188.025 77.8038C187.97 78.1767 188.023 78.5576 188.177 78.9016C188.331 79.2455 188.581 79.538 188.896 79.7447C189.212 79.9513 189.579 80.0633 189.956 80.0676C190.24 80.0634 190.52 79.9994 190.777 79.8799C191.035 79.7603 191.264 79.5878 191.45 79.3737C191.637 79.1596 191.776 78.9086 191.858 78.6371C191.941 78.3656 191.966 78.0797 191.931 77.7981Z" fill="white"/>
    <path d="M196.674 73.0322H200.033V76.0507H201.644C203.914 76.0507 205.57 77.14 205.57 79.296C205.57 81.452 204.095 82.6095 201.78 82.6095H196.674V73.0322ZM201.054 80.2265C201.871 80.2265 202.348 79.8861 202.348 79.1825C202.348 78.479 201.871 78.2067 201.054 78.2067H200.033V80.2265H201.054Z" fill="white"/>
    <path d="M206.456 77.821C206.428 77.1732 206.532 76.5266 206.762 75.9203C206.991 75.314 207.342 74.7607 207.792 74.2939C208.241 73.827 208.781 73.4564 209.379 73.2044C209.976 72.9525 210.619 72.8244 211.267 72.8281C211.94 72.8076 212.609 72.932 213.23 73.1928C213.85 73.4537 214.408 73.8448 214.864 74.3398C215.32 74.8348 215.665 75.4221 215.874 76.0619C216.084 76.7016 216.153 77.3789 216.078 78.0479C216.078 78.2749 216.078 78.5245 216.078 78.7515H209.701C209.798 79.2177 210.061 79.633 210.441 79.9207C210.82 80.2085 211.291 80.3494 211.766 80.3174C212.167 80.3145 212.563 80.226 212.927 80.0577C213.291 79.8894 213.615 79.6452 213.877 79.3415L215.738 80.8848C215.248 81.5143 214.617 82.0193 213.895 82.3584C213.173 82.6976 212.382 82.8614 211.585 82.8365C210.911 82.8786 210.236 82.7784 209.603 82.5425C208.971 82.3065 208.395 81.9401 207.913 81.4671C207.432 80.994 207.055 80.4249 206.808 79.7967C206.561 79.1686 206.448 78.4954 206.478 77.821H206.456ZM212.969 77.0267C212.833 75.9827 212.22 75.3018 211.312 75.3018C210.404 75.3018 209.814 75.9827 209.655 77.0267H212.969Z" fill="white"/>
    <path d="M217.508 73.0323H220.867V74.2125C221.191 73.7509 221.623 73.3754 222.125 73.1184C222.628 72.8613 223.185 72.7306 223.749 72.7373C224.932 72.9333 226.007 73.5427 226.782 74.4571C227.557 75.3715 227.983 76.5314 227.983 77.7302C227.983 78.929 227.557 80.0889 226.782 81.0033C226.007 81.9176 224.932 82.5271 223.749 82.7231C223.19 82.7364 222.636 82.618 222.131 82.3775C221.627 82.137 221.186 81.7811 220.844 81.3387V85.333H217.485L217.508 73.0323ZM224.702 77.7983C224.646 77.4256 224.484 77.0767 224.236 76.7931C223.988 76.5094 223.663 76.3027 223.301 76.1975C222.939 76.0922 222.555 76.0928 222.193 76.1991C221.831 76.3055 221.508 76.5131 221.26 76.7975C221.013 77.0819 220.852 77.4311 220.797 77.804C220.742 78.1769 220.794 78.5578 220.949 78.9018C221.103 79.2457 221.352 79.5382 221.668 79.7449C221.983 79.9515 222.351 80.0635 222.728 80.0678C223.012 80.0636 223.291 79.9996 223.549 79.8801C223.806 79.7605 224.035 79.588 224.222 79.3739C224.408 79.1598 224.547 78.9088 224.63 78.6373C224.713 78.3658 224.737 78.0799 224.702 77.7983Z" fill="white"/>
    <path d="M229.06 77.821C229.032 77.1732 229.136 76.5266 229.366 75.9203C229.595 75.314 229.946 74.7607 230.396 74.2939C230.846 73.827 231.386 73.4564 231.983 73.2044C232.58 72.9525 233.223 72.8244 233.871 72.8281C234.544 72.8076 235.213 72.932 235.834 73.1928C236.455 73.4537 237.012 73.8448 237.468 74.3398C237.924 74.8348 238.269 75.4221 238.478 76.0619C238.688 76.7016 238.757 77.3789 238.682 78.0479C238.682 78.2749 238.682 78.5245 238.682 78.7515H232.305C232.402 79.2177 232.665 79.633 233.045 79.9207C233.424 80.2085 233.895 80.3494 234.37 80.3174C234.771 80.3145 235.167 80.226 235.531 80.0577C235.895 79.8894 236.219 79.6452 236.481 79.3415L238.342 80.8848C237.852 81.5143 237.221 82.0193 236.499 82.3584C235.777 82.6976 234.986 82.8614 234.189 82.8365C233.515 82.8786 232.84 82.7784 232.207 82.5425C231.575 82.3065 230.999 81.9401 230.517 81.4671C230.036 80.994 229.659 80.4249 229.412 79.7967C229.165 79.1686 229.052 78.4954 229.082 77.821H229.06ZM235.573 77.0267C235.437 75.9827 234.824 75.3018 233.916 75.3018C233.009 75.3018 232.418 75.9827 232.26 77.0267H235.573Z" fill="white"/>
</svg>
