<svg xmlns="http://www.w3.org/2000/svg" display="none">

    <symbol id="next" viewBox="0 0 31 18">
        <path d="M21.7021 0.702148L30 9.00002L21.7021 17.2979"/>
        <path d="M30 9H-7.45058e-09"/>
    </symbol>

    <symbol id="prev" viewBox="0 0 31 18">
        <path d="M9.29788 0.702148L1.00001 9.00002L9.29788 17.2979"/>
        <path d="M1 9H31"/>
    </symbol>

    <symbol id="telegram" viewBox="0 0 21 18">
        <path fill-rule="evenodd" clip-rule="evenodd"
              d="M1.47854 7.78602C7.11705 5.23766 10.8729 3.55223 12.7459 2.72974C18.121 0.413964 19.233 0.0203641 19.9549 0.00013901C20.2224 -0.00381964 20.4846 0.0768481 20.7061 0.232214C20.8598 0.372475 20.9572 0.567325 20.9793 0.778332C21.0069 1.04048 21.0069 1.30524 20.9793 1.56739C20.6866 4.73262 19.4282 12.4184 18.7843 15.9679C18.5112 17.4747 17.9844 17.9904 17.4674 17.9904C16.3455 18.1017 15.5163 17.2216 14.4042 16.4834C12.7068 15.3306 11.741 14.6126 10.0924 13.4496C8.14137 12.1451 9.4193 11.4267 10.5119 10.2638C10.7948 9.96042 15.7407 5.29845 15.8285 4.87372C15.8452 4.81194 15.8459 4.74726 15.8305 4.6851C15.8151 4.62294 15.7841 4.56592 15.7407 4.52018C15.6334 4.40894 15.4675 4.44939 15.3407 4.52018C15.2139 4.59097 12.4142 6.42087 7.19514 10.1018C6.59382 10.589 5.86026 10.8684 5.09774 10.9008C4.0721 10.7756 3.06385 10.5284 2.09312 10.1631C0.883472 9.75856 -0.0822494 9.5464 0.00554757 8.84863C0.0835893 8.53514 0.561545 8.16019 1.47854 7.78602Z"/>
    </symbol>

    <symbol id="vk" viewBox="0 0 26 17">
        <path d="M13.96 16.2699C5.40996 16.2699 0.539956 10.4099 0.329956 0.659912H4.60999C4.74999 7.80991 7.91003 10.8399 10.41 11.4699V0.659912H14.41V6.82991C16.88 6.55991 19.48 3.74991 20.35 0.659912H24.35C24.0204 2.26375 23.3637 3.7824 22.4208 5.12101C21.4779 6.45963 20.2691 7.58945 18.87 8.43991C20.4341 9.2152 21.8155 10.3143 22.9224 11.6643C24.0292 13.0142 24.8363 14.5842 25.29 16.2699H20.85C20.4418 14.8056 19.6098 13.4946 18.4586 12.5018C17.3074 11.5089 15.8884 10.8786 14.38 10.6899V16.2699H13.96Z"/>
    </symbol>

    <symbol id="youtube" viewBox="0 0 27 19">
        <path d="M19.9452 0H7.0548C0 0 0 2.03834 0 7.05065V11.9494C0 16.7144 0.988528 19 7.0548 19H19.9452C25.4151 19 27 17.6634 27 11.9494V7.05065C27 1.77436 26.7331 0 19.9452 0ZM10.742 13.2225V5.53693L18.0176 9.36634L10.742 13.2225Z"/>
    </symbol>

</svg>