<svg xmlns="http://www.w3.org/2000/svg" display="none">

    <symbol id="next" viewBox="0 0 31 18">
        <path d="M21.7021 0.702148L30 9.00002L21.7021 17.2979"/>
        <path d="M30 9H-7.45058e-09"/>
    </symbol>

    <symbol id="prev" viewBox="0 0 31 18">
        <path d="M9.29788 0.702148L1.00001 9.00002L9.29788 17.2979"/>
        <path d="M1 9H31"/>
    </symbol>

    <symbol id="telegram" viewBox="0 0 21 18">
        <path fill-rule="evenodd" clip-rule="evenodd"
              d="M1.47854 7.78602C7.11705 5.23766 10.8729 3.55223 12.7459 2.72974C18.121 0.413964 19.233 0.0203641 19.9549 0.00013901C20.2224 -0.00381964 20.4846 0.0768481 20.7061 0.232214C20.8598 0.372475 20.9572 0.567325 20.9793 0.778332C21.0069 1.04048 21.0069 1.30524 20.9793 1.56739C20.6866 4.73262 19.4282 12.4184 18.7843 15.9679C18.5112 17.4747 17.9844 17.9904 17.4674 17.9904C16.3455 18.1017 15.5163 17.2216 14.4042 16.4834C12.7068 15.3306 11.741 14.6126 10.0924 13.4496C8.14137 12.1451 9.4193 11.4267 10.5119 10.2638C10.7948 9.96042 15.7407 5.29845 15.8285 4.87372C15.8452 4.81194 15.8459 4.74726 15.8305 4.6851C15.8151 4.62294 15.7841 4.56592 15.7407 4.52018C15.6334 4.40894 15.4675 4.44939 15.3407 4.52018C15.2139 4.59097 12.4142 6.42087 7.19514 10.1018C6.59382 10.589 5.86026 10.8684 5.09774 10.9008C4.0721 10.7756 3.06385 10.5284 2.09312 10.1631C0.883472 9.75856 -0.0822494 9.5464 0.00554757 8.84863C0.0835893 8.53514 0.561545 8.16019 1.47854 7.78602Z"/>
    </symbol>

    <symbol id="vk" viewBox="0 0 26 17">
        <path d="M13.96 16.2699C5.40996 16.2699 0.539956 10.4099 0.329956 0.659912H4.60999C4.74999 7.80991 7.91003 10.8399 10.41 11.4699V0.659912H14.41V6.82991C16.88 6.55991 19.48 3.74991 20.35 0.659912H24.35C24.0204 2.26375 23.3637 3.7824 22.4208 5.12101C21.4779 6.45963 20.2691 7.58945 18.87 8.43991C20.4341 9.2152 21.8155 10.3143 22.9224 11.6643C24.0292 13.0142 24.8363 14.5842 25.29 16.2699H20.85C20.4418 14.8056 19.6098 13.4946 18.4586 12.5018C17.3074 11.5089 15.8884 10.8786 14.38 10.6899V16.2699H13.96Z"/>
    </symbol>

    <symbol id="youtube" viewBox="0 0 27 19">
        <path d="M19.9452 0H7.0548C0 0 0 2.03834 0 7.05065V11.9494C0 16.7144 0.988528 19 7.0548 19H19.9452C25.4151 19 27 17.6634 27 11.9494V7.05065C27 1.77436 26.7331 0 19.9452 0ZM10.742 13.2225V5.53693L18.0176 9.36634L10.742 13.2225Z"/>
    </symbol>

    <symbol id="phone" viewBox="0 0 18 18">
        <path d="M13.1204 11.6602C12.7973 11.3353 12.3586 11.1517 11.9004 11.1499C11.6732 11.1486 11.4481 11.1932 11.2385 11.2808C11.0289 11.3684 10.8391 11.4975 10.6805 11.6602L9.84044 12.4903C8.90572 11.8908 8.03749 11.1935 7.25045 10.4102C6.46795 9.62502 5.77383 8.75667 5.18047 7.82034L6.01046 6.99026C6.3289 6.66375 6.50816 6.22614 6.51046 5.77005C6.51145 5.5438 6.46781 5.31973 6.38201 5.11038C6.29621 4.90103 6.16994 4.7108 6.01046 4.55032L4.38045 2.93021C4.22369 2.76785 4.03565 2.63896 3.82769 2.5513C3.61972 2.46364 3.39614 2.41879 3.17046 2.41995C2.94326 2.41859 2.71812 2.46318 2.5085 2.55081C2.29888 2.63844 2.10909 2.76756 1.95046 2.93021L1.17046 3.70023C0.799536 4.09824 0.522554 4.57412 0.359881 5.09329C0.197208 5.61246 0.152979 6.16171 0.230456 6.70023C0.410456 8.85023 1.82045 11.4401 4.00045 13.6201C5.85055 15.6245 8.31173 16.9604 11.0004 17.42C11.1603 17.43 11.3206 17.43 11.4805 17.42C11.9436 17.4402 12.4061 17.3675 12.8406 17.2061C13.2751 17.0446 13.6729 16.7977 14.0105 16.48L14.7905 15.7002C15.1104 15.3706 15.2897 14.9296 15.2905 14.4702C15.2898 14.0168 15.1101 13.5819 14.7905 13.2603L13.1204 11.6602ZM13.9305 14.9102L13.1504 15.6802C12.8603 15.9216 12.522 16.0982 12.1581 16.1983C11.7942 16.2983 11.4132 16.3194 11.0405 16.2603C8.69316 15.7084 6.54564 14.5144 4.83794 12.812C3.13024 11.1096 1.92966 8.96571 1.37044 6.62015C1.3108 6.24899 1.33176 5.86921 1.43184 5.50687C1.53192 5.14452 1.70879 4.80799 1.95046 4.52005L2.76045 3.74026C2.81395 3.68595 2.87781 3.643 2.94823 3.6138C3.01865 3.5846 3.09422 3.56982 3.17046 3.57034C3.2451 3.57059 3.31893 3.58558 3.38762 3.61478C3.45631 3.64397 3.51847 3.6867 3.57045 3.74026L5.20046 5.37991C5.30613 5.48824 5.36528 5.63385 5.36528 5.78519C5.36528 5.93652 5.30613 6.08164 5.20046 6.18997L4.05046 7.33987C3.96138 7.42881 3.90424 7.54513 3.88796 7.66995C3.87168 7.79477 3.89717 7.9215 3.96047 8.0303C4.64849 9.20058 5.48175 10.2791 6.44045 11.2403C7.399 12.2019 8.47795 13.0355 9.65044 13.7202C9.75874 13.7853 9.88586 13.8118 10.0111 13.7954C10.1364 13.7791 10.2524 13.7205 10.3404 13.6299L11.4905 12.48C11.5988 12.3743 11.7441 12.3155 11.8955 12.3155C12.0468 12.3155 12.1921 12.3743 12.3005 12.48L13.9305 14.1099C14.0338 14.2214 14.091 14.3681 14.0904 14.5201C14.087 14.6653 14.03 14.8043 13.9305 14.9102V14.9102Z"/>
        <path d="M14.9296 2.73007C14.1297 1.93067 13.1802 1.29674 12.1353 0.864351C11.0903 0.431964 9.97043 0.209578 8.83957 0.210054C8.7577 0.199233 8.67447 0.20613 8.59543 0.230073C8.51639 0.254017 8.44339 0.294778 8.38129 0.349214C8.31918 0.40365 8.26941 0.470284 8.23532 0.545503C8.20123 0.620722 8.18359 0.702664 8.18359 0.785249C8.18359 0.867834 8.20123 0.949288 8.23532 1.02451C8.26941 1.09973 8.31918 1.16685 8.38129 1.22128C8.44339 1.27572 8.51639 1.31648 8.59543 1.34042C8.67447 1.36437 8.7577 1.37078 8.83957 1.35996C9.82515 1.35991 10.801 1.55539 11.7107 1.93466C12.6203 2.31393 13.4458 2.86976 14.1395 3.56992C14.8331 4.27007 15.3812 5.10058 15.752 6.01376C16.1227 6.92695 16.3088 7.90469 16.2996 8.89023C16.2996 8.96593 16.3146 9.04063 16.3439 9.11044C16.3732 9.18026 16.4161 9.24391 16.4701 9.29697C16.5241 9.35003 16.5881 9.39148 16.6584 9.41953C16.7287 9.44758 16.8039 9.46138 16.8796 9.46005C16.9548 9.46141 17.0295 9.44769 17.0993 9.41953C17.1691 9.39136 17.2324 9.34968 17.2856 9.29648C17.3388 9.24328 17.3808 9.17972 17.409 9.10996C17.4371 9.04019 17.4509 8.96546 17.4496 8.89023C17.4593 7.74761 17.2415 6.61432 16.8088 5.55673C16.3762 4.49915 15.7374 3.53826 14.9296 2.73007V2.73007Z"/>
        <path d="M11.6598 6.02002C11.9838 6.34352 12.2393 6.72896 12.4111 7.15332C12.5829 7.57768 12.6675 8.03248 12.6598 8.49023C12.6598 8.64406 12.7209 8.79162 12.8297 8.90039C12.9385 9.00916 13.086 9.07031 13.2398 9.07031C13.3155 9.07032 13.3905 9.05515 13.4603 9.02588C13.5301 8.99661 13.5934 8.95341 13.6465 8.89941C13.6995 8.84542 13.7413 8.78174 13.7693 8.71143C13.7974 8.64111 13.8111 8.56593 13.8098 8.49023C13.8178 7.88244 13.7049 7.27916 13.4778 6.71533C13.2507 6.1515 12.9139 5.63816 12.4868 5.20557C12.0598 4.77297 11.5512 4.42972 10.9903 4.19531C10.4295 3.9609 9.82767 3.83979 9.21982 3.83984C9.08037 3.85827 8.95237 3.92694 8.85965 4.03271C8.76693 4.13849 8.71582 4.27438 8.71582 4.41504C8.71582 4.5557 8.76693 4.69158 8.85965 4.79736C8.95237 4.90314 9.08037 4.9718 9.21982 4.99023C10.1296 4.99213 11.0022 5.35124 11.6498 5.99023L11.6598 6.02002Z"/>
    </symbol>


    <symbol id="mail" viewBox="0 0 18 14">
        <path d="M17.0396 0.879883H0.599609V12.7699H17.0396V0.879883Z" stroke-linejoin="round"/>
        <path d="M8.81961 6.81988L0.599609 0.879883H17.0396L8.81961 6.81988Z" stroke-linejoin="round"/>
    </symbol>

    <symbol id="arrow-right" viewBox="0 0 7 11">
        <path d="M1 1L6 5.5L1 10" stroke-width="0.75"/>
    </symbol>


</svg>